# xmcd CD database file
#
# Track frame offsets:
#	150
#	9867
#	24622
#	42120
#	57472
#	71537
#	85645
#	99042
#	112562
#	126865
#	139432
#	154060
#	166762
#	182432
#
# Disc length: 2625 seconds
#
# Revision: 0
# Processed by: cddbd v1.4PL0 Copyright (c) Steve Scherf et al.
# Submitted via: CDex 1.50Beta7
#
DISCID=9e0a3f0e
DTITLE=Kikki Danielsson - Country Classics Disc 1 - På Svenska
DYEAR=1995
DGENRE=Country
TTITLE0=Cowboy Yodel
TTITLE1=Så Håll Om Mig
TTITLE2=Ljuset I Din Natt
TTITLE3=Om En Stund
TTITLE4=Nashville Tennesse
TTITLE5=Långt Bortom Bergen
TTITLE6=Ring Mig Imorron'
TTITLE7=Jag Ska Aldrig Lämna Dig
TTITLE8=Som En Sol
TTITLE9=En Cowboy Från Oklahoma
TTITLE10=Någon Däruppe
TTITLE11=Gyllene Tider
TTITLE12=Vägen Hem Till Dig
TTITLE13=Det Finns Ingen Annan ÄN Du
EXTD=YEAR: 1995
EXTT0=
EXTT1=
EXTT2=
EXTT3=
EXTT4=
EXTT5=
EXTT6=
EXTT7=
EXTT8=
EXTT9=
EXTT10=
EXTT11=
EXTT12=
EXTT13=
PLAYORDER=
